<?xml version="1.0" standalone="no"?>
<!DOCTYPE svg PUBLIC "-//W3C//DTD SVG 20010904//EN"
 "http://www.w3.org/TR/2001/REC-SVG-20010904/DTD/svg10.dtd">
<svg version="1.0" xmlns="http://www.w3.org/2000/svg"
 width="2019.000000pt" height="569.000000pt" viewBox="0 0 2019.000000 569.000000"
 preserveAspectRatio="xMidYMid meet">

<g transform="translate(0.000000,569.000000) scale(0.100000,-0.100000)"
fill="#000000" stroke="none">
<path d="M4116 5640 c11 -14 517 -647 1123 -1408 l1103 -1383 -41 -52 c-22
-29 -523 -657 -1114 -1397 -591 -740 -1073 -1346 -1071 -1348 3 -5 3774 2790
3774 2797 0 3 -851 636 -1890 1405 -1040 770 -1893 1402 -1897 1405 -5 3 1 -5
13 -19z"/>
<path d="M18588 5460 c-82 -15 -147 -41 -196 -78 -62 -47 -78 -67 -109 -132
-22 -44 -27 -69 -27 -130 1 -153 86 -251 307 -354 53 -25 112 -56 131 -71 95
-73 85 -208 -19 -260 -77 -38 -251 -27 -352 23 l-40 19 -22 -91 c-12 -50 -21
-94 -21 -98 0 -10 119 -46 190 -58 91 -14 159 -13 248 6 146 30 261 117 299
227 23 68 23 187 -1 242 -45 106 -100 153 -277 240 -62 32 -129 68 -147 82
-88 66 -81 182 14 229 56 27 197 25 277 -4 42 -15 59 -18 62 -9 2 7 11 41 20
77 9 36 18 72 21 81 11 38 -245 80 -358 59z"/>
<path d="M13975 5454 c-11 -2 -55 -6 -97 -9 l-78 -7 0 -599 0 -599 115 0 115
0 0 246 0 246 84 -3 c134 -6 168 -45 211 -239 14 -62 34 -143 45 -181 l21 -69
120 0 c104 0 120 2 115 15 -3 8 -26 97 -52 198 -54 215 -88 288 -151 326 -23
14 -43 28 -43 31 0 3 20 16 45 29 58 31 111 89 142 158 22 48 25 65 21 141 -3
72 -9 96 -33 142 -68 124 -215 181 -460 178 -55 0 -109 -2 -120 -4z m297 -196
c52 -29 78 -71 85 -141 10 -94 -43 -175 -136 -206 -19 -6 -69 -11 -112 -11
l-79 0 0 189 c0 220 -11 202 122 196 58 -2 88 -9 120 -27z"/>
<path d="M15230 5454 c-8 -1 -50 -6 -92 -9 l-78 -7 0 -599 0 -599 115 0 115 0
0 224 0 223 118 6 c217 10 341 78 411 227 23 49 26 67 26 170 0 105 -2 119
-27 165 -32 62 -104 130 -165 157 -67 29 -184 47 -303 46 -58 0 -112 -2 -120
-4z m277 -189 c50 -21 72 -42 94 -90 43 -92 13 -213 -66 -267 -47 -33 -140
-53 -202 -43 l-43 6 0 205 0 204 90 0 c59 0 104 -5 127 -15z"/>
<path d="M16400 5449 c-47 -5 -91 -11 -97 -14 -10 -3 -13 -133 -13 -600 l0
-595 120 0 120 0 0 245 0 245 70 0 c140 0 177 -44 229 -275 16 -71 36 -148 44
-170 l14 -40 121 -3 122 -3 -10 27 c-6 14 -28 99 -51 188 -57 227 -95 302
-174 343 l-29 16 47 24 c60 30 118 89 148 151 33 67 33 206 0 273 -48 100
-138 159 -279 185 -85 15 -251 16 -382 3z m326 -174 c85 -25 124 -81 124 -176
0 -79 -30 -134 -92 -169 -35 -20 -61 -25 -135 -28 l-93 -4 0 190 c0 190 0 191
23 195 50 10 126 6 173 -8z"/>
<path d="M8930 4845 l0 -605 350 0 350 0 0 95 0 95 -230 0 -230 0 0 170 0 170
205 0 205 0 0 95 0 95 -205 0 -205 0 0 150 0 150 215 0 215 0 0 95 0 95 -335
0 -335 0 0 -605z"/>
<path d="M10080 4845 l0 -605 107 0 106 0 -6 433 c-4 237 -9 442 -13 455 -3
12 -2 22 3 22 6 0 23 -30 38 -67 40 -96 174 -360 312 -618 l119 -220 122 -3
122 -3 0 606 0 605 -111 0 -112 0 8 -352 c4 -194 10 -395 14 -445 3 -51 4 -93
1 -93 -4 0 -17 26 -30 58 -33 82 -170 352 -307 607 l-118 220 -127 3 -128 3 0
-606z"/>
<path d="M11390 5350 l0 -100 155 0 155 0 0 -505 0 -505 120 0 120 0 0 505 0
505 155 0 155 0 0 100 0 100 -430 0 -430 0 0 -100z"/>
<path d="M12650 4845 l0 -605 350 0 350 0 0 95 0 95 -230 0 -230 0 0 170 0
170 205 0 205 0 0 95 0 95 -205 0 -205 0 0 150 0 150 215 0 215 0 0 95 0 95
-335 0 -335 0 0 -605z"/>
<path d="M17550 4845 l0 -605 120 0 120 0 0 605 0 605 -120 0 -120 0 0 -605z"/>
<path d="M19440 4845 l0 -605 350 0 350 0 0 95 0 95 -230 0 -230 0 0 170 0
170 205 0 205 0 0 95 0 95 -205 0 -205 0 0 150 0 150 215 0 215 0 0 95 0 95
-335 0 -335 0 0 -605z"/>
<path d="M14134 1465 c-97 -21 -172 -62 -244 -135 -74 -74 -119 -157 -151
-277 -30 -109 -30 -306 -1 -414 70 -260 251 -409 497 -409 248 0 432 149 501
405 25 93 30 294 10 396 -64 321 -315 499 -612 434z m201 -194 c113 -51 178
-202 178 -416 0 -183 -41 -307 -128 -383 -58 -51 -125 -69 -193 -52 -138 34
-217 169 -229 390 -12 225 62 410 187 464 48 21 136 20 185 -3z"/>
<path d="M9045 1459 c-49 -5 -96 -11 -102 -14 -10 -3 -13 -132 -13 -598 l0
-594 46 -7 c86 -11 360 -6 436 8 293 57 445 224 480 528 39 347 -110 592 -403
663 -79 19 -322 27 -444 14z m418 -207 c119 -59 176 -163 185 -338 14 -295
-97 -464 -325 -495 -46 -6 -94 -7 -118 -2 l-40 9 -3 424 c-2 332 1 426 10 432
7 5 60 8 118 6 96 -3 112 -6 173 -36z"/>
<path d="M15135 1464 c-11 -2 -55 -6 -97 -9 l-78 -7 0 -599 0 -599 115 0 115
0 0 225 0 225 83 0 c107 0 186 15 263 50 80 36 133 86 175 162 30 57 34 72 37
163 3 85 1 109 -19 159 -44 119 -146 195 -295 221 -70 13 -243 18 -299 9z
m272 -189 c50 -21 72 -42 94 -90 47 -101 7 -234 -84 -281 -41 -22 -135 -37
-184 -29 l-43 6 0 198 c0 109 3 201 7 204 13 14 173 7 210 -8z"/>
<path d="M10090 855 l0 -605 350 0 350 0 0 95 0 95 -235 0 -235 0 0 170 0 170
210 0 210 0 0 95 0 95 -210 0 -210 0 0 150 0 150 220 0 220 0 0 95 0 95 -335
0 -335 0 0 -605z"/>
<path d="M11054 855 l181 -605 137 0 137 0 26 83 c14 45 99 316 189 602 l163
520 -120 3 c-66 1 -124 -1 -128 -5 -10 -11 -202 -731 -231 -865 -13 -60 -26
-108 -29 -108 -4 0 -10 21 -14 47 -10 71 -185 762 -231 916 -5 15 -20 17 -133
17 l-128 0 181 -605z"/>
<path d="M12030 855 l0 -605 345 0 345 0 0 95 0 95 -230 0 -230 0 0 170 0 170
205 0 205 0 0 95 0 95 -205 0 -205 0 0 150 0 150 220 0 220 0 0 95 0 95 -335
0 -335 0 0 -605z"/>
<path d="M12920 855 l0 -605 340 0 340 0 0 95 0 95 -225 0 -225 0 0 510 0 510
-115 0 -115 0 0 -605z"/>
<path d="M15990 1453 c0 -5 -18 -262 -40 -573 -22 -311 -40 -580 -40 -597 l0
-33 104 0 103 0 7 107 c16 263 36 685 36 761 0 45 3 82 8 82 4 0 20 -57 35
-127 15 -71 71 -282 124 -471 l98 -343 89 3 88 3 85 270 c46 149 109 357 139
464 30 107 56 196 58 198 2 2 6 -79 10 -179 10 -271 26 -613 32 -695 l6 -73
109 0 c81 0 109 3 109 13 0 6 -16 275 -35 597 -19 322 -35 588 -35 593 0 4
-66 6 -147 5 l-146 -3 -49 -155 c-74 -237 -153 -514 -178 -627 -13 -57 -27
-103 -32 -103 -4 0 -8 8 -8 19 0 32 -106 434 -172 656 l-63 210 -148 3 c-81 1
-147 -1 -147 -5z"/>
<path d="M17370 855 l0 -605 350 0 350 0 0 95 0 95 -230 0 -230 0 0 170 0 170
205 0 205 0 0 95 0 95 -205 0 -205 0 0 150 0 150 215 0 215 0 0 95 0 95 -335
0 -335 0 0 -605z"/>
<path d="M18260 855 l0 -605 112 0 111 0 -6 408 c-4 224 -10 429 -13 455 -4
26 -3 47 2 47 5 0 31 -51 58 -113 26 -61 130 -266 230 -454 l181 -343 118 0
117 0 0 605 0 605 -105 0 -105 0 0 -217 c0 -120 5 -319 11 -442 5 -123 8 -225
6 -227 -1 -2 -29 54 -60 124 -31 70 -133 269 -225 442 l-169 315 -131 3 -132
3 0 -606z"/>
<path d="M19330 1360 l0 -100 155 0 155 0 0 -505 0 -505 115 0 115 0 0 505 0
505 155 0 155 0 0 100 0 100 -425 0 -425 0 0 -100z"/>
</g>
</svg>
